<svg width="41" height="40" viewBox="0 0 41 40" fill="none" xmlns="http://www.w3.org/2000/svg">
<rect x="0.731934" width="40" height="40" rx="8" fill="#311D05"/>
<path fill-rule="evenodd" clip-rule="evenodd" d="M17.2376 18.5634L20.7337 15.0689L24.2311 18.5663L26.2642 16.5319L20.7337 11.0001L15.2031 16.5304L17.2376 18.5634ZM11.732 20.0003L13.7658 17.9666L15.7995 20.0003L13.7658 22.034L11.732 20.0003ZM20.7336 24.9325L17.2376 21.4365L15.2003 23.4681L15.2031 23.471L20.7336 28.9999L26.2642 23.4681L26.2656 23.4667L24.2311 21.4351L20.7336 24.9325ZM25.6641 20.0008L27.6979 17.9671L29.7316 20.0008L27.6979 22.0345L25.6641 20.0008ZM20.7333 17.9349L22.7963 19.9992H22.7977L22.7963 20.0006L20.7333 22.0649L18.6704 20.0034L18.6675 19.9992L18.6704 19.9963L19.0315 19.6352L19.2078 19.4603L20.7333 17.9349Z" fill="#F3BA2F"/>
</svg>
