<svg width="20" height="18" viewBox="0 0 20 18" fill="none" xmlns="http://www.w3.org/2000/svg">
<path d="M14.9782 4.755C14.7015 4.7 14.4757 4.5275 14.3599 4.28083C13.0665 1.555 10.074 0.0308303 7.08069 0.582497C4.35402 1.0825 2.21652 3.25916 1.76069 6C1.62569 6.80916 1.63569 7.61916 1.78819 8.40833C1.83819 8.66583 1.72736 8.9525 1.49986 9.15916C0.54569 10.0267 -0.000976562 11.2625 -0.000976562 12.5508C-0.000976562 15.0775 2.05486 17.1342 4.58236 17.1342H13.749C17.1957 17.1342 19.999 14.3308 19.999 10.8842C19.999 7.91333 17.8874 5.33583 14.9774 4.75583L14.9782 4.755ZM12.6007 11.0567L10.3449 13.3125C10.0224 13.635 9.59819 13.7975 9.17402 13.7992L9.16652 13.8008L9.15902 13.7992C8.73486 13.7975 8.31069 13.635 7.98819 13.3125L5.73236 11.0567C5.40652 10.7308 5.40652 10.2042 5.73236 9.87833C6.05819 9.5525 6.58486 9.5525 6.91069 9.87833L8.33319 11.3008V7.13416C8.33319 6.67333 8.70652 6.30083 9.16652 6.30083C9.62652 6.30083 9.99986 6.67333 9.99986 7.13416V11.3008L11.4224 9.87833C11.7482 9.5525 12.2749 9.5525 12.6007 9.87833C12.9265 10.2042 12.9265 10.7308 12.6007 11.0567Z" fill="white"/>
</svg>
