<svg width="12" height="12" viewBox="0 0 12 12" fill="none" xmlns="http://www.w3.org/2000/svg">
<g clip-path="url(#clip0_4678_50093)">
<path d="M10.6665 2H1.33317C1.15636 2 0.98679 2.07024 0.861766 2.19526C0.736742 2.32029 0.666504 2.48986 0.666504 2.66667V9.33333C0.666504 9.51014 0.736742 9.67971 0.861766 9.80474C0.98679 9.92976 1.15636 10 1.33317 10H10.6665C10.8433 10 11.0129 9.92976 11.1379 9.80474C11.2629 9.67971 11.3332 9.51014 11.3332 9.33333V2.66667C11.3332 2.48986 11.2629 2.32029 11.1379 2.19526C11.0129 2.07024 10.8433 2 10.6665 2ZM10.1532 9.33333H1.8865L4.21984 6.92L3.73984 6.45667L1.33317 8.94667V3.17333L5.4765 7.29667C5.60141 7.42083 5.77038 7.49053 5.9465 7.49053C6.12263 7.49053 6.2916 7.42083 6.4165 7.29667L10.6665 3.07V8.90333L8.21317 6.45L7.74317 6.92L10.1532 9.33333ZM1.76984 2.66667H10.1265L5.9465 6.82333L1.76984 2.66667Z" fill="white"/>
</g>
<defs>
<clipPath id="clip0_4678_50093">
<rect width="12" height="12" fill="white"/>
</clipPath>
</defs>
</svg>
