<svg width="14" height="14" viewBox="0 0 14 14" fill="none" xmlns="http://www.w3.org/2000/svg">
<path d="M2.53849 1.00054H11.4667C11.6701 0.995085 11.8726 1.03114 12.0616 1.10649C12.2507 1.18185 12.4224 1.29493 12.5664 1.43884C12.7103 1.58275 12.8234 1.75447 12.8988 1.94353C12.9742 2.13259 13.0103 2.33503 13.0048 2.53849V11.4667C13.0103 11.6702 12.9742 11.8726 12.8989 12.0617C12.8235 12.2508 12.7104 12.4225 12.5665 12.5665C12.4225 12.7104 12.2508 12.8235 12.0617 12.8989C11.8726 12.9742 11.6702 13.0103 11.4667 13.0048H2.53849C2.33503 13.0103 2.13259 12.9742 1.94353 12.8988C1.75447 12.8234 1.58275 12.7103 1.43884 12.5664C1.29493 12.4224 1.18185 12.2507 1.10649 12.0616C1.03114 11.8726 0.995085 11.6701 1.00054 11.4667V2.53849C0.995113 2.33504 1.03118 2.13263 1.10655 1.94358C1.18192 1.75454 1.29501 1.58282 1.43892 1.43892C1.58282 1.29501 1.75454 1.18192 1.94358 1.10655C2.13263 1.03118 2.33504 0.995113 2.53849 1.00054V1.00054Z" stroke="white" stroke-width="0.8" stroke-miterlimit="10" stroke-linecap="round" stroke-linejoin="round"/>
<path d="M9.7409 2.33252C9.59665 2.33263 9.45835 2.38997 9.35635 2.49197C9.25436 2.59396 9.19701 2.73227 9.1969 2.87651V4.17078C9.19701 4.31502 9.25436 4.45333 9.35635 4.55532C9.45835 4.65732 9.59665 4.71466 9.7409 4.71477H11.0914C11.2356 4.71466 11.3739 4.65732 11.4759 4.55532C11.5779 4.45333 11.6353 4.31502 11.6354 4.17078V2.87651C11.6353 2.73227 11.5779 2.59396 11.4759 2.49197C11.3739 2.38997 11.2356 2.33263 11.0914 2.33252H9.7409ZM11.6542 6.08386H10.6038C10.7022 6.41893 10.7527 6.76622 10.7539 7.11543C10.7539 9.10354 9.08446 10.7355 7.02133 10.7355C6.4484 10.7531 5.87948 10.6345 5.36134 10.3894C4.8432 10.1443 4.39065 9.77967 4.0409 9.32554C3.69116 8.87141 3.45421 8.34075 3.34954 7.77719C3.24488 7.21364 3.27549 6.63328 3.43885 6.08386H2.33205V11.1483C2.33146 11.21 2.34319 11.2712 2.36656 11.3284C2.38992 11.3856 2.42444 11.4375 2.46811 11.4811C2.51178 11.5248 2.56371 11.5593 2.62088 11.5826C2.67804 11.6059 2.73928 11.6176 2.80102 11.617H11.1664C11.2282 11.6176 11.2894 11.6059 11.3466 11.5826C11.4038 11.5592 11.4557 11.5247 11.4994 11.481C11.5431 11.4374 11.5776 11.3854 11.6009 11.3283C11.6243 11.2711 11.636 11.2098 11.6354 11.1481L11.6542 6.08386Z" stroke="white" stroke-width="0.8" stroke-miterlimit="10" stroke-linecap="round" stroke-linejoin="round"/>
<path d="M7.02123 4.63918C6.38973 4.63025 5.78045 4.87201 5.3269 5.3115C4.87334 5.75099 4.61251 6.35236 4.60156 6.98382C4.60741 7.29551 4.67468 7.60298 4.79951 7.88864C4.92433 8.1743 5.10427 8.43254 5.32902 8.64857C5.55377 8.86461 5.81892 9.0342 6.10929 9.14763C6.39966 9.26107 6.70955 9.31612 7.02123 9.30965C7.65272 9.31859 8.262 9.07682 8.71555 8.63733C9.16911 8.19784 9.42994 7.59647 9.44089 6.96501C9.43504 6.65333 9.36777 6.34585 9.24295 6.06019C9.11812 5.77453 8.93818 5.5163 8.71343 5.30026C8.48868 5.08423 8.22354 4.91464 7.93316 4.8012C7.64279 4.68777 7.3329 4.63271 7.02123 4.63918V4.63918Z" stroke="white" stroke-width="0.8" stroke-miterlimit="10" stroke-linecap="round" stroke-linejoin="round"/>
</svg>
