<svg width="27" height="44" viewBox="0 0 27 44" fill="none" xmlns="http://www.w3.org/2000/svg">
<path opacity="0.3" d="M13.4719 4.05L13.4702 4.05C7.93756 4.06379 3.50714 9.19959 3.50714 15.4V28.6C3.50714 34.9157 7.83634 39.95 13.4518 39.95H13.5C19.0522 39.95 23.4929 34.814 23.4929 28.6V15.4C23.4929 9.19758 19.0375 4.06378 13.4719 4.05ZM13.5 43.65H13.4518C6.27076 43.65 0.35 36.9447 0.35 28.6V15.4C0.35 7.094 6.25072 0.397571 13.4221 0.35H13.4221H13.4222H13.4223H13.4224H13.4224H13.4225H13.4226H13.4227H13.4227H13.4228H13.4229H13.423H13.4231H13.4231H13.4232H13.4233H13.4234H13.4235H13.4235H13.4236H13.4237H13.4238H13.4239H13.4239H13.424H13.4241H13.4242H13.4243H13.4243H13.4244H13.4245H13.4246H13.4246H13.4247H13.4248H13.4249H13.425H13.425H13.4251H13.4252H13.4253H13.4254H13.4254H13.4255H13.4256H13.4257H13.4258H13.4258H13.4259H13.426H13.4261H13.4262H13.4262H13.4263H13.4264H13.4265H13.4266H13.4266H13.4267H13.4268H13.4269H13.427H13.427H13.4271H13.4272H13.4273H13.4273H13.4274H13.4275H13.4276H13.4277H13.4277H13.4278H13.4279H13.428H13.4281H13.4281H13.4282H13.4283H13.4284H13.4285H13.4285H13.4286H13.4287H13.4288H13.4289H13.4289H13.429H13.4291H13.4292H13.4293H13.4293H13.4294H13.4295H13.4296H13.4297H13.4297H13.4298H13.4299H13.43H13.4301H13.4301H13.4302H13.4303H13.4304H13.4305H13.4305H13.4306H13.4307H13.4308H13.4309H13.431H13.431H13.4311H13.4312H13.4313H13.4314H13.4314H13.4315H13.4316H13.4317H13.4318H13.4318H13.4319H13.432H13.4321H13.4322H13.4322H13.4323H13.4324H13.4325H13.4326H13.4326H13.4327H13.4328H13.4329H13.433H13.4331H13.4331H13.4332H13.4333H13.4334H13.4335H13.4335H13.4336H13.4337H13.4338H13.4339H13.4339H13.434H13.4341H13.4342H13.4343H13.4344H13.4344H13.4345H13.4346H13.4347H13.4348H13.4348H13.4349H13.435H13.4351H13.4352H13.4353H13.4353H13.4354H13.4355H13.4356H13.4357H13.4357H13.4358H13.4359H13.436H13.4361H13.4362H13.4362H13.4363H13.4364H13.4365H13.4366H13.4366H13.4367H13.4368H13.4369H13.437H13.4371H13.4371H13.4372H13.4373H13.4374H13.4375H13.4376H13.4376H13.4377H13.4378H13.4379H13.438H13.4381H13.4381H13.4382H13.4383H13.4384H13.4385H13.4386H13.4386H13.4387H13.4388H13.4389H13.439H13.4391H13.4391H13.4392H13.4393H13.4394H13.4395H13.4396H13.4396H13.4397H13.4398H13.4399H13.44H13.4401H13.4401H13.4402H13.4403H13.4404H13.4405H13.4406H13.4406H13.4407H13.4408H13.4409H13.441H13.4411H13.4412H13.4412H13.4413H13.4414H13.4415H13.4416H13.4417H13.4417H13.4418H13.4419H13.442H13.4421H13.4422H13.4423H13.4423H13.4424H13.4425H13.4426H13.4427H13.4428H13.4429H13.4429H13.443H13.4431H13.4432H13.4433H13.4434H13.4434H13.4435H13.4436H13.4437H13.4438H13.4439H13.444H13.4441H13.4441H13.4442H13.4443H13.4444H13.4445H13.4446H13.4447H13.4447H13.4448H13.4449H13.445H13.4451H13.4452H13.4453H13.4453H13.4454H13.4455H13.4456H13.4457H13.4458H13.4459H13.446H13.446H13.4461H13.4462H13.4463H13.4464H13.4465H13.4466H13.4467H13.4467H13.4468H13.4469H13.447H13.4471H13.4472H13.4473H13.4474H13.4474H13.4475H13.4476H13.4477H13.4478H13.4479H13.448H13.4481H13.4482H13.4482H13.4483H13.4484H13.4485H13.4486H13.4487H13.4488H13.4489H13.449H13.449H13.4491H13.4492H13.4493H13.4494H13.4495H13.4496H13.4497H13.4498H13.4498H13.4499H13.45H13.4501H13.4502H13.4503H13.4504H13.4505H13.4506H13.4507H13.4507H13.4508H13.4509H13.451H13.4511H13.4512H13.4513H13.4514H13.4515H13.4516H13.4517H13.4517H13.4518H13.4519H13.452H13.4521H13.4522H13.4523H13.4524H13.4525H13.4526H13.4527H13.4527H13.4528H13.4529H13.453H13.4531H13.4532H13.4533H13.4534H13.4535H13.4536H13.4537H13.4538H13.4539H13.4539H13.454H13.4541H13.4542H13.4543H13.4544H13.4545H13.4546H13.4547H13.4548H13.4549H13.455H13.4551H13.4552H13.4552H13.4553H13.4554H13.4555H13.4556H13.4557H13.4558H13.4559H13.456H13.4561H13.4562H13.4563H13.4564H13.4565H13.4566H13.4567H13.4568H13.4568H13.4569H13.457H13.4571H13.4572H13.4573H13.4574H13.4575H13.4576H13.4577H13.4578H13.4579H13.458H13.4581H13.4582H13.4583H13.4584H13.4585H13.4586H13.4587H13.4588H13.4589H13.459H13.459H13.4591H13.4592H13.4593H13.4594H13.4595H13.4596H13.4597H13.4598H13.4599H13.46H13.4601H13.4602H13.4603H13.4604H13.4605H13.4606H13.4607H13.4608H13.4609H13.461H13.4611H13.4612H13.4613H13.4614H13.4615H13.4616H13.4617H13.4618H13.4619H13.462H13.4621H13.4622H13.4623H13.4624H13.4625H13.4626H13.4627H13.4628H13.4629H13.463H13.4631H13.4632H13.4633H13.4634H13.4635H13.4636H13.4637H13.4638H13.4639H13.464H13.4641H13.4642H13.4643H13.4644H13.4645H13.4646H13.4647H13.4648H13.4649H13.465H13.4651H13.4652H13.4653H13.4653H13.4653H13.4654H13.4654H13.4654H13.4654H13.4655H13.4655H13.4655H13.4655H13.4656H13.4656H13.4656H13.4657H13.4657H13.4657H13.4657H13.4658H13.4658H13.4658H13.4659H13.4659H13.4659H13.466H13.466H13.466H13.4661H13.4661H13.4662H13.4662H13.4662H13.4663H13.4663H13.4663H13.4664H13.4664H13.4665H13.4665H13.4665H13.4666H13.4666H13.4667H13.4667H13.4668H13.4668H13.4669H13.4669H13.4669H13.467H13.467H13.4671H13.4671H13.4672H13.4672H13.4673H13.4673H13.4674H13.4674H13.4675H13.4675H13.4676H13.4676H13.4677H13.4677H13.4678H13.4678H13.4679H13.4679H13.468H13.468H13.4681H13.4682H13.4682H13.4683H13.4683H13.4684H13.4684H13.4685H13.4686H13.4686H13.4687H13.4687H13.4688H13.4688H13.4689H13.469H13.469H13.4691H13.4692H13.4692H13.4693H13.4693H13.4694H13.4695H13.4695H13.4696H13.4697H13.4697H13.4698H13.4698H13.4699H13.47H13.47H13.4701H13.4702H13.4702H13.4703H13.4704H13.4704H13.4705H13.4706H13.4707H13.4707H13.4708H13.4709H13.4709H13.471H13.4711H13.4711H13.4712H13.4713H13.4714H13.4714H13.4715H13.4716H13.4716H13.4717H13.4718H13.4719H13.4719H13.472H13.4721H13.4722H13.4722H13.4723H13.4724H13.4725H13.4725H13.4726H13.4727H13.4728H13.4728H13.4729H13.473H13.4731H13.4732H13.4732H13.4733H13.4734H13.4735H13.4736H13.4736H13.4737H13.4738H13.4739H13.4739H13.474H13.4741H13.4742H13.4743H13.4744H13.4744H13.4745H13.4746H13.4747H13.4748H13.4748H13.4749H13.475H13.4751H13.4752H13.4753H13.4753H13.4754H13.4755H13.4756H13.4757H13.4758H13.4758H13.4759H13.476H13.4761H13.4762H13.4763H13.4763H13.4764H13.4765H13.4766H13.4767H13.4768H13.4769H13.4769H13.477H13.4771H13.4772H13.4773H13.4774H13.4775H13.4776H13.4776H13.4777H13.4778H13.4779H13.478H13.4781H13.4782H13.4783H13.4783H13.4784H13.4785H13.4786H13.4787H13.4788H13.4789H13.479H13.479H13.4791H13.4792H13.4793H13.4794H13.4795H13.4796H13.4797H13.4798H13.4799H13.4799H13.48H13.4801H13.4802H13.4803H13.4804H13.4805H13.4806H13.4807H13.4807H13.4808H13.4809H13.481H13.4811H13.4812H13.4813H13.4814H13.4815H13.4816H13.4816H13.4817H13.4818H13.4819H13.482H13.4821H13.4822H13.4823H13.4824H13.4825H13.4826H13.4826H13.4827H13.4828H13.4829H13.483H13.4831H13.4832H13.4833H13.4834H13.4835H13.4835H13.4836H13.4837H13.4838H13.4839H13.484H13.4841H13.4842H13.4843H13.4844H13.4844H13.4845H13.4846H13.4847H13.4848H13.4849H13.485H13.4851H13.4852H13.4853H13.4853H13.4854H13.4855H13.4856H13.4857H13.4858H13.4859H13.486H13.4861H13.4861H13.4862H13.4863H13.4864H13.4865H13.4866H13.4867H13.4868H13.4869H13.4869H13.487H13.4871H13.4872H13.4873H13.4874H13.4875H13.4876H13.4876H13.4877H13.4878H13.4879H13.488H13.4881H13.4882H13.4883H13.4883H13.4884H13.4885H13.4886H13.4887H13.4888H13.4889H13.4889H13.489H13.4891H13.4892H13.4893H13.4894H13.4894H13.4895H13.4896H13.4897H13.4898H13.4899H13.4899H13.49H13.4901H13.4902H13.4903H13.4904H13.4904H13.4905H13.4906H13.4907H13.4908H13.4909H13.4909H13.491H13.4911H13.4912H13.4913H13.4913H13.4914H13.4915H13.4916H13.4917H13.4917H13.4918H13.4919H13.492H13.4921H13.4921H13.4922H13.4923H13.4924H13.4924H13.4925H13.4926H13.4927H13.4927H13.4928H13.4929H13.493H13.493H13.4931H13.4932H13.4933H13.4933H13.4934H13.4935H13.4936H13.4936H13.4937H13.4938H13.4939H13.4939H13.494H13.4941H13.4941H13.4942H13.4943H13.4944H13.4944H13.4945H13.4946H13.4946H13.4947H13.4948H13.4948H13.4949H13.495H13.495H13.4951H13.4952H13.4952H13.4953H13.4954H13.4954H13.4955H13.4956H13.4956H13.4957H13.4958H13.4958H13.4959H13.4959H13.496H13.4961H13.4961H13.4962H13.4963H13.4963H13.4964H13.4964H13.4965H13.4966H13.4966H13.4967H13.4967H13.4968H13.4968H13.4969H13.497H13.497H13.4971H13.4971H13.4972H13.4972H13.4973H13.4973H13.4974H13.4975H13.4975H13.4976H13.4976H13.4977H13.4977H13.4978H13.4978H13.4979H13.4979H13.498H13.498H13.4981H13.4981H13.4982H13.4982H13.4983H13.4983H13.4983H13.4984H13.4984H13.4985H13.4985H13.4986H13.4986H13.4987H13.4987H13.4987H13.4988H13.4988H13.4989H13.4989H13.4989H13.499H13.499H13.4991H13.4991H13.4991H13.4992H13.4992H13.4992H13.4993H13.4993H13.4993H13.4994H13.4994H13.4994H13.4995H13.4995H13.4995H13.4996H13.4996H13.4996H13.4997H13.4997H13.4997H13.4997H13.4998H13.4998H13.4998H13.4999H13.4999H13.4999H13.4999H13.5H13.5H13.5H13.5001H13.5001H13.5002H13.5003H13.5003H13.5004H13.5005H13.5005H13.5006H13.5007H13.5007H13.5008H13.5009H13.501H13.501H13.5011H13.5012H13.5012H13.5013H13.5014H13.5014H13.5015H13.5016H13.5016H13.5017H13.5018H13.5018H13.5019H13.502H13.5021H13.5021H13.5022H13.5023H13.5023H13.5024H13.5025H13.5025H13.5026H13.5027H13.5027H13.5028H13.5029H13.503H13.503H13.5031H13.5032H13.5032H13.5033H13.5034H13.5034H13.5035H13.5036H13.5037H13.5037H13.5038H13.5039H13.5039H13.504H13.5041H13.5041H13.5042H13.5043H13.5044H13.5044H13.5045H13.5046H13.5046H13.5047H13.5048H13.5048H13.5049H13.505H13.5051H13.5051H13.5052H13.5053H13.5053H13.5054H13.5055H13.5056H13.5056H13.5057H13.5058H13.5058H13.5059H13.506H13.506H13.5061H13.5062H13.5063H13.5063H13.5064H13.5065H13.5065H13.5066H13.5067H13.5068H13.5068H13.5069H13.507H13.507H13.5071H13.5072H13.5073H13.5073H13.5074H13.5075H13.5075H13.5076H13.5077H13.5078H13.5078H13.5079H13.508H13.508H13.5081H13.5082H13.5083H13.5083H13.5084H13.5085H13.5085H13.5086H13.5087H13.5088H13.5088H13.5089H13.509H13.5091H13.5091H13.5092H13.5093H13.5093H13.5094H13.5095H13.5096H13.5096H13.5097H13.5098H13.5098H13.5099H13.51H13.5101H13.5101H13.5102H13.5103H13.5104H13.5104H13.5105H13.5106H13.5106H13.5107H13.5108H13.5109H13.5109H13.511H13.5111H13.5112H13.5112H13.5113H13.5114H13.5114H13.5115H13.5116H13.5117H13.5117H13.5118H13.5119H13.5119H13.512H13.5121H13.5122H13.5122H13.5123H13.5124H13.5125H13.5125H13.5126H13.5127H13.5128H13.5128H13.5129H13.513H13.513H13.5131H13.5132H13.5133H13.5133H13.5134H13.5135H13.5136H13.5136H13.5137H13.5138H13.5138H13.5139H13.514H13.5141H13.5141H13.5142H13.5143H13.5144H13.5144H13.5145H13.5146H13.5147H13.5147H13.5148H13.5149H13.5149H13.515H13.5151H13.5152H13.5152H13.5153H13.5154H13.5155H13.5155H13.5156H13.5157H13.5158H13.5158H13.5159H13.516H13.516H13.5161H13.5162H13.5163H13.5163H13.5164H13.5165H13.5166H13.5166H13.5167H13.5168H13.5169H13.5169H13.517H13.5171H13.5171H13.5172H13.5173H13.5174H13.5174H13.5175H13.5176H13.5177H13.5177H13.5178H13.5179H13.518H13.518H13.5181H13.5182H13.5182H13.5183H13.5184H13.5185H13.5185H13.5186H13.5187H13.5188H13.5188H13.5189H13.519H13.5191H13.5191H13.5192H13.5193H13.5193H13.5194H13.5195H13.5196H13.5196H13.5197H13.5198H13.5199H13.5199H13.52H13.5201H13.5202H13.5202H13.5203H13.5204H13.5205H13.5205H13.5206H13.5207H13.5207H13.5208H13.5209H13.521H13.521H13.5211H13.5212H13.5213H13.5213H13.5214H13.5215H13.5216H13.5216H13.5217H13.5218H13.5218H13.5219H13.522H13.5221H13.5221H13.5222H13.5223H13.5224H13.5224H13.5225H13.5226H13.5226H13.5227H13.5228H13.5229H13.5229H13.523H13.5231H13.5232H13.5232H13.5233H13.5234H13.5235H13.5235H13.5236H13.5237H13.5237H13.5238H13.5239H13.524H13.524H13.5241H13.5242H13.5243H13.5243H13.5244H13.5245H13.5245H13.5246H13.5247H13.5248H13.5248H13.5249H13.525H13.5251H13.5251H13.5252H13.5253H13.5253H13.5254H13.5255H13.5256H13.5256H13.5257H13.5258H13.5259H13.5259H13.526H13.5261H13.5261H13.5262H13.5263H13.5264H13.5264H13.5265H13.5266H13.5267H13.5267H13.5268H13.5269H13.5269H13.527H13.5271H13.5272H13.5272H13.5273H13.5274H13.5274H13.5275H13.5276H13.5277H13.5277H13.5278H13.5279H13.528H13.528H13.5281H13.5282H13.5282H13.5283H13.5284H13.5285H13.5285H13.5286H13.5287H13.5287H13.5288H13.5289H13.529H13.529H13.5291H13.5292H13.5292H13.5293H13.5294H13.5295H13.5295H13.5296H13.5297H13.5297H13.5298H13.5299H13.53H13.53H13.5301H13.5302H13.5302H13.5303H13.5304H13.5305H13.5305H13.5306H13.5307H13.5307H13.5308H13.5309H13.5309H13.531H13.5311H13.5312H13.5312H13.5313H13.5314H13.5314H13.5315H13.5316H13.5317H13.5317H13.5318H13.5319H13.5319H13.532H13.5321H13.5321H13.5322H13.5323H13.5324H13.5324H13.5325H13.5326H13.5326H13.5327H13.5328H13.5329H13.5329H13.533H13.5331H13.5331H13.5332H13.5333H13.5333H13.5334H13.5335H13.5335H13.5336H13.5337H13.5338H13.5338H13.5339H13.534H13.534H13.5341H13.5342H13.5342H13.5343H13.5344H13.5345H13.5345H13.5346H13.5347H13.5347H13.5348H13.5349H13.5349H13.535H13.5351H13.5351H13.5352H13.5353H13.5353C20.7351 0.406231 26.65 7.09984 26.65 15.4V28.6C26.65 36.9434 20.7072 43.65 13.5 43.65Z" fill="#4B5060" stroke="white" stroke-width="0.7"/>
<path d="M12 10.8H14.9V19.5H12V10.8Z" fill="#181B1D"/>
</svg>
