<svg width="12" height="12" viewBox="0 0 12 12" fill="none" xmlns="http://www.w3.org/2000/svg">
<path d="M6.5 4C6.89782 4 7.27936 4.15804 7.56066 4.43934C7.84196 4.72064 8 5.10218 8 5.5C8 5.63261 8.05268 5.75979 8.14645 5.85355C8.24021 5.94732 8.36739 6 8.5 6C8.63261 6 8.75979 5.94732 8.85355 5.85355C8.94732 5.75979 9 5.63261 9 5.5C9 4.83696 8.73661 4.20107 8.26777 3.73223C7.79893 3.26339 7.16304 3 6.5 3C6.36739 3 6.24021 3.05268 6.14645 3.14645C6.05268 3.24021 6 3.36739 6 3.5C6 3.63261 6.05268 3.75979 6.14645 3.85355C6.24021 3.94732 6.36739 4 6.5 4Z" fill="white"/>
<path d="M6.5 2C7.42826 2 8.3185 2.36875 8.97487 3.02513C9.63125 3.6815 10 4.57174 10 5.5C10 5.63261 10.0527 5.75979 10.1464 5.85355C10.2402 5.94732 10.3674 6 10.5 6C10.6326 6 10.7598 5.94732 10.8536 5.85355C10.9473 5.75979 11 5.63261 11 5.5C11 4.30653 10.5259 3.16193 9.68198 2.31802C8.83807 1.47411 7.69347 1 6.5 1C6.36739 1 6.24021 1.05268 6.14645 1.14645C6.05268 1.24021 6 1.36739 6 1.5C6 1.63261 6.05268 1.75979 6.14645 1.85355C6.24021 1.94732 6.36739 2 6.5 2ZM10.875 7.955C10.8475 7.87473 10.8 7.80278 10.737 7.74593C10.6741 7.68907 10.5977 7.64918 10.515 7.63L7.515 6.945C7.43357 6.92654 7.34881 6.92876 7.26846 6.95147C7.18811 6.97418 7.11472 7.01664 7.055 7.075C6.985 7.14 6.98 7.145 6.655 7.765C5.5766 7.26808 4.7125 6.40043 4.22 5.32C4.855 5 4.86 5 4.925 4.925C4.98336 4.86528 5.02582 4.79189 5.04853 4.71154C5.07124 4.63119 5.07346 4.54643 5.055 4.465L4.37 1.5C4.35082 1.41735 4.31093 1.34094 4.25407 1.27796C4.19722 1.21498 4.12527 1.1675 4.045 1.14C3.92823 1.09829 3.80766 1.06815 3.685 1.05C3.55863 1.0207 3.42967 1.00395 3.3 1C2.69 1 2.10499 1.24232 1.67365 1.67365C1.24232 2.10499 1 2.69 1 3.3C1.00265 5.34135 1.81474 7.29834 3.2582 8.7418C4.70166 10.1853 6.65865 10.9974 8.7 11C9.00204 11 9.30112 10.9405 9.58017 10.8249C9.85922 10.7093 10.1128 10.5399 10.3263 10.3263C10.5399 10.1128 10.7093 9.85922 10.8249 9.58017C10.9405 9.30112 11 9.00204 11 8.7C11.0002 8.57274 10.9901 8.44566 10.97 8.32C10.949 8.19581 10.9172 8.07368 10.875 7.955ZM8.7 10C6.92346 9.99868 5.22005 9.29236 3.96385 8.03615C2.70764 6.77995 2.00132 5.07654 2 3.3C2.00132 2.95562 2.1387 2.62573 2.38222 2.38222C2.62573 2.1387 2.95562 2.00132 3.3 2H3.465L4 4.32L3.73 4.46C3.3 4.685 2.96 4.865 3.14 5.255C3.43311 6.08479 3.90739 6.83886 4.52837 7.46244C5.14935 8.08602 5.90144 8.56343 6.73 8.86C7.15 9.03 7.315 8.715 7.54 8.28L7.685 8.005L10 8.535V8.7C9.99868 9.04438 9.8613 9.37427 9.61778 9.61778C9.37427 9.8613 9.04438 9.99868 8.7 10Z" fill="white"/>
</svg>
