<svg width="54" height="57" viewBox="0 0 54 57" fill="none" xmlns="http://www.w3.org/2000/svg">
<path fill-rule="evenodd" clip-rule="evenodd" d="M52.6209 55.1285C51.7658 55.3525 50.8921 55.5392 50.0185 55.6138C46.9328 55.8565 36.5789 56.1365 34.497 56.0431C33.865 56.0431 33.1586 55.9311 32.5824 55.6698C31.56 55.2032 31.4856 54.0086 32.4337 53.3553C32.7683 53.1126 33.2144 52.9633 33.6419 52.8887C34.8874 52.6833 36.1328 52.5154 37.3782 52.422C41.1331 52.1607 44.9066 51.9181 48.6615 51.7501C49.9069 51.6941 51.171 51.8247 52.4164 51.9741C53.3458 52.0861 54.0522 52.8513 53.9964 53.5606C53.9221 54.4006 53.383 54.9232 52.6209 55.1285ZM27.8616 29.5945C28.1467 29.523 28.4147 29.4609 28.6704 29.4017L28.6705 29.4017C29.2152 29.2756 29.7045 29.1624 30.1852 28.9972C37.3232 26.5707 43.6805 22.6696 49.7218 18.2273C50.4282 17.7046 51.0973 17.0513 51.5435 16.3234C51.7851 15.9314 51.7479 15.1475 51.5063 14.6995C51.3204 14.3635 50.5955 14.1209 50.1865 14.1955C49.4058 14.3262 48.6065 14.6062 47.9001 14.9981C43.2344 17.574 38.5872 20.1685 33.9587 22.8003C32.6058 23.5745 31.2643 24.383 29.9253 25.1899C29.5533 25.4141 29.1815 25.6382 28.8096 25.8614C28.2334 26.1974 27.6757 26.5707 27.1553 26.9627C26.5604 27.392 26.2072 28.0453 26.5976 28.6986C26.6226 28.7398 26.6469 28.7814 26.6712 28.8229C26.8994 29.2133 27.1223 29.5945 27.8616 29.5945ZM0.182208 3.16358C0.231913 3.46304 0.277464 3.77918 0.324412 4.10504C0.417929 4.75409 0.517001 5.44169 0.665507 6.11273L0.665804 6.11408C1.55796 10.0894 2.45012 14.0647 3.37944 18.0213C3.58391 18.8799 3.9371 19.7199 4.34604 20.4851C4.88511 21.5117 5.64725 21.8664 6.48374 21.6984C7.32022 21.5304 7.8407 20.8584 7.85929 19.6825C7.87788 18.8799 7.85929 18.0213 7.67341 17.256C6.40938 12.235 5.10818 7.21399 3.78839 2.21165C3.63968 1.65169 3.37945 1.07305 3.00767 0.643747C2.09683 -0.438849 0.665511 -0.102869 0.312327 1.27838C0.230082 1.62052 0.222102 1.99249 0.213282 2.40373C0.208147 2.64309 0.202727 2.89576 0.182208 3.16358Z" fill="black"/>
</svg>
