<svg width="14" height="13" viewBox="0 0 14 13" fill="none" xmlns="http://www.w3.org/2000/svg">
<path d="M12.8583 2.46434C12.6345 2.55455 12.405 2.62755 12.1716 2.68279C12.1493 2.6882 12.1259 2.68552 12.1051 2.67516C12.0842 2.66479 12.0672 2.64732 12.0565 2.62543C12.0457 2.60354 12.042 2.57845 12.0458 2.55403C12.0496 2.52961 12.0607 2.50721 12.0774 2.49029C12.345 2.21333 12.5655 1.88771 12.7288 1.52828C12.7382 1.50703 12.7413 1.48311 12.7375 1.4599C12.7337 1.43669 12.7233 1.41534 12.7077 1.39886C12.6921 1.38238 12.6721 1.37159 12.6505 1.36801C12.629 1.36443 12.6069 1.36823 12.5874 1.37889C12.1637 1.62449 11.7015 1.78296 11.2243 1.84625C10.7241 1.30974 10.0495 1.00601 9.34468 1C9.00523 0.999675 8.66905 1.07168 8.35537 1.21189C8.0417 1.35211 7.75669 1.55778 7.51666 1.81714C7.27663 2.0765 7.08629 2.38446 6.95652 2.7234C6.82676 3.06233 6.76012 3.42559 6.76042 3.79238C6.75954 3.99859 6.77922 4.20431 6.81911 4.40597C4.92947 4.34413 2.72364 3.3573 1.43485 1.64179C1.42411 1.62724 1.4102 1.61579 1.39436 1.60847C1.37852 1.60114 1.36126 1.59815 1.34409 1.59978C1.32693 1.60141 1.31041 1.60761 1.296 1.61781C1.28159 1.62802 1.26974 1.64191 1.26151 1.65827C1.01316 2.21114 0.939061 2.83664 1.05053 3.43929C1.162 4.04193 1.45291 4.5886 1.87886 4.99586C1.89598 5.01091 1.90824 5.03143 1.91389 5.05449C1.91954 5.07754 1.91829 5.10194 1.91031 5.12417C1.90233 5.1464 1.88803 5.16533 1.86947 5.17824C1.85092 5.19115 1.82905 5.19738 1.80702 5.19602C1.58193 5.1852 1.36142 5.12371 1.1596 5.01549C1.14319 5.00651 1.12487 5.00237 1.10651 5.00349C1.08814 5.00461 1.07038 5.01096 1.05501 5.02188C1.03964 5.03281 1.02722 5.04792 1.019 5.0657C1.01077 5.08348 1.00704 5.10329 1.00818 5.12313C1.02917 5.65637 1.19983 6.17009 1.49747 6.59602C1.79512 7.02196 2.20567 7.33995 2.67456 7.50774C2.69634 7.51622 2.71489 7.53228 2.7273 7.55339C2.73971 7.5745 2.74527 7.59947 2.74312 7.62437C2.74097 7.64927 2.73122 7.6727 2.71541 7.69096C2.6996 7.70923 2.67862 7.7213 2.65577 7.72528C2.45911 7.74939 2.26056 7.74939 2.0639 7.72528C2.04692 7.72356 2.02981 7.7263 2.01403 7.73327C1.99825 7.74024 1.98426 7.75123 1.97326 7.76531C1.96227 7.77939 1.95458 7.79613 1.95087 7.81412C1.94716 7.8321 1.94754 7.85078 1.95196 7.86858C2.12927 8.60921 3.0154 9.47644 4.00679 9.59537C4.02666 9.59816 4.04536 9.60708 4.06067 9.62105C4.07598 9.63502 4.08724 9.65345 4.09312 9.67415C4.099 9.69485 4.09924 9.71693 4.09382 9.73778C4.0884 9.75862 4.07755 9.77734 4.06255 9.79169C3.23583 10.5072 2.19692 10.8742 1.13871 10.8246C1.115 10.8234 1.09164 10.8311 1.07247 10.8462C1.05331 10.8613 1.03948 10.883 1.03328 10.9078C1.02708 10.9326 1.02887 10.9589 1.03835 10.9824C1.04784 11.0059 1.06445 11.0252 1.08546 11.0371C2.20199 11.6699 3.44399 12.0002 4.70475 11.9998C5.68453 12.0068 6.65534 11.7978 7.55782 11.3856C8.46029 10.9734 9.27548 10.3666 9.95354 9.60236C10.6316 8.83812 11.1583 7.93248 11.5014 6.9408C11.8445 5.94913 11.9968 4.89226 11.949 3.83481V3.72897C12.3457 3.42861 12.6938 3.05967 12.9794 2.63698C12.9929 2.61737 13.0001 2.59357 13 2.56916C12.9999 2.54475 12.9924 2.52103 12.9788 2.50158C12.9651 2.48212 12.946 2.46797 12.9243 2.46126C12.9026 2.45455 12.8794 2.45563 12.8583 2.46434V2.46434Z" stroke="white" stroke-width="0.8" stroke-miterlimit="10" stroke-linecap="round" stroke-linejoin="round"/>
</svg>
